<?xml version="1.0" encoding="UTF-8"?>
<svg xmlns="http://www.w3.org/2000/svg" xmlns:xlink="http://www.w3.org/1999/xlink" width="300px" height="114px" viewBox="0 0 400 114" version="1.1">
<g id="surface1">
<path style=" stroke:none;fill-rule:nonzero;fill:rgb(100%,100%,100%);fill-opacity:1;" d="M 367.886719 37.695312 L 374.746094 37.695312 L 374.746094 48.226562 L 374.328125 52.886719 L 374.746094 52.886719 C 375.480469 51.664062 376.527344 50.671875 377.886719 49.902344 C 379.285156 49.097656 380.839844 48.695312 382.550781 48.695312 C 385.867188 48.695312 388.3125 49.675781 389.882812 51.628906 C 391.488281 53.585938 392.289062 56.257812 392.289062 59.648438 L 392.289062 75.207031 L 385.429688 75.207031 L 385.429688 60.484375 C 385.429688 58.703125 385.011719 57.359375 384.175781 56.449219 C 383.335938 55.507812 382.164062 55.035156 380.664062 55.035156 C 379.71875 55.035156 378.882812 55.246094 378.148438 55.664062 C 377.417969 56.050781 376.789062 56.589844 376.265625 57.289062 C 375.777344 57.988281 375.390625 58.808594 375.113281 59.75 C 374.871094 60.660156 374.746094 61.636719 374.746094 62.683594 L 374.746094 75.207031 L 367.886719 75.207031 Z M 367.886719 37.695312 "/>
<path style=" stroke:none;fill-rule:nonzero;fill:rgb(100%,100%,100%);fill-opacity:1;" d="M 365.273438 68.65625 C 364.152344 70.824219 362.582031 72.605469 360.554688 74 C 358.566406 75.363281 356.070312 76.042969 353.066406 76.042969 C 351.078125 76.042969 349.246094 75.710938 347.570312 75.050781 C 345.925781 74.351562 344.496094 73.390625 343.273438 72.167969 C 342.085938 70.945312 341.144531 69.511719 340.445312 67.871094 C 339.78125 66.195312 339.449219 64.363281 339.449219 62.371094 C 339.449219 60.378906 339.78125 58.546875 340.445312 56.871094 C 341.144531 55.195312 342.085938 53.761719 343.273438 52.574219 C 344.496094 51.351562 345.925781 50.410156 347.570312 49.746094 C 349.246094 49.046875 351.078125 48.695312 353.066406 48.695312 C 356.035156 48.695312 358.53125 49.378906 360.554688 50.742188 C 362.582031 52.101562 364.066406 53.867188 365.007812 56.03125 L 358.722656 58.652344 C 358.128906 57.464844 357.359375 56.574219 356.421875 55.980469 C 355.511719 55.351562 354.359375 55.035156 352.964844 55.035156 C 352.054688 55.035156 351.199219 55.210938 350.394531 55.558594 C 349.59375 55.910156 348.878906 56.398438 348.246094 57.027344 C 347.65625 57.65625 347.183594 58.425781 346.832031 59.332031 C 346.484375 60.242188 346.3125 61.253906 346.3125 62.371094 C 346.3125 63.488281 346.484375 64.5 346.832031 65.410156 C 347.183594 66.316406 347.65625 67.085938 348.246094 67.714844 C 348.878906 68.34375 349.59375 68.832031 350.394531 69.179688 C 351.199219 69.53125 352.054688 69.707031 352.964844 69.707031 C 354.394531 69.707031 355.597656 69.390625 356.578125 68.761719 C 357.589844 68.097656 358.390625 67.15625 358.984375 65.933594 Z M 365.273438 68.65625 "/>
<path style=" stroke:none;fill-rule:nonzero;fill:rgb(100%,100%,100%);fill-opacity:1;" d="M 337.429688 69.023438 C 336.242188 71.121094 334.636719 72.8125 332.613281 74.105469 C 330.621094 75.398438 328.179688 76.042969 325.28125 76.042969 C 323.324219 76.042969 321.507812 75.710938 319.832031 75.050781 C 318.191406 74.351562 316.761719 73.390625 315.539062 72.167969 C 314.316406 70.945312 313.355469 69.511719 312.65625 67.871094 C 311.996094 66.195312 311.664062 64.363281 311.664062 62.371094 C 311.664062 60.519531 311.996094 58.773438 312.65625 57.132812 C 313.320312 55.457031 314.246094 54.003906 315.433594 52.785156 C 316.621094 51.527344 318.019531 50.53125 319.625 49.796875 C 321.265625 49.0625 323.0625 48.695312 325.019531 48.695312 C 327.078125 48.695312 328.910156 49.046875 330.519531 49.746094 C 332.121094 50.410156 333.46875 51.351562 334.550781 52.574219 C 335.632812 53.761719 336.453125 55.175781 337.011719 56.816406 C 337.570312 58.457031 337.851562 60.242188 337.851562 62.160156 C 337.851562 62.40625 337.851562 62.617188 337.851562 62.789062 C 337.816406 63 337.796875 63.191406 337.796875 63.367188 C 337.761719 63.539062 337.746094 63.734375 337.746094 63.941406 L 318.421875 63.941406 C 318.558594 64.992188 318.839844 65.898438 319.257812 66.667969 C 319.710938 67.398438 320.253906 68.027344 320.878906 68.550781 C 321.542969 69.042969 322.257812 69.410156 323.027344 69.652344 C 323.796875 69.863281 324.582031 69.96875 325.386719 69.96875 C 326.957031 69.96875 328.246094 69.617188 329.261719 68.917969 C 330.308594 68.1875 331.128906 67.277344 331.722656 66.195312 Z M 331.199219 59.070312 C 331.164062 58.617188 331.003906 58.109375 330.726562 57.550781 C 330.484375 56.992188 330.097656 56.46875 329.574219 55.980469 C 329.085938 55.492188 328.457031 55.089844 327.6875 54.773438 C 326.957031 54.460938 326.066406 54.300781 325.019531 54.300781 C 323.550781 54.300781 322.257812 54.722656 321.140625 55.558594 C 320.023438 56.398438 319.238281 57.570312 318.785156 59.070312 Z M 331.199219 59.070312 "/>
<path style=" stroke:none;fill-rule:nonzero;fill:rgb(100%,100%,100%);fill-opacity:1;" d="M 297.160156 75.207031 L 297.160156 44.402344 L 286.683594 44.402344 L 286.683594 37.695312 L 314.703125 37.695312 L 314.703125 44.402344 L 304.230469 44.402344 L 304.230469 75.207031 Z M 297.160156 75.207031 "/>
<path style=" stroke:none;fill-rule:nonzero;fill:rgb(100%,100%,100%);fill-opacity:1;" d="M 285.128906 69.023438 C 283.945312 71.121094 282.335938 72.8125 280.3125 74.105469 C 278.320312 75.398438 275.878906 76.042969 272.980469 76.042969 C 271.023438 76.042969 269.207031 75.710938 267.53125 75.050781 C 265.890625 74.351562 264.460938 73.390625 263.238281 72.167969 C 262.015625 70.945312 261.054688 69.511719 260.359375 67.871094 C 259.695312 66.195312 259.363281 64.363281 259.363281 62.371094 C 259.363281 60.519531 259.695312 58.773438 260.359375 57.132812 C 261.019531 55.457031 261.945312 54.003906 263.132812 52.785156 C 264.320312 51.527344 265.714844 50.53125 267.324219 49.796875 C 268.964844 49.0625 270.761719 48.695312 272.71875 48.695312 C 274.777344 48.695312 276.609375 49.046875 278.214844 49.746094 C 279.824219 50.410156 281.167969 51.351562 282.25 52.574219 C 283.332031 53.761719 284.152344 55.175781 284.710938 56.816406 C 285.269531 58.457031 285.546875 60.242188 285.546875 62.160156 C 285.546875 62.40625 285.546875 62.617188 285.546875 62.789062 C 285.515625 63 285.496094 63.191406 285.496094 63.367188 C 285.460938 63.539062 285.445312 63.734375 285.445312 63.941406 L 266.117188 63.941406 C 266.257812 64.992188 266.539062 65.898438 266.957031 66.667969 C 267.410156 67.398438 267.949219 68.027344 268.582031 68.550781 C 269.242188 69.042969 269.960938 69.410156 270.726562 69.652344 C 271.496094 69.863281 272.28125 69.96875 273.082031 69.96875 C 274.65625 69.96875 275.945312 69.617188 276.960938 68.917969 C 278.007812 68.1875 278.828125 67.277344 279.421875 66.195312 Z M 278.898438 59.070312 C 278.863281 58.617188 278.707031 58.109375 278.425781 57.550781 C 278.179688 56.992188 277.800781 56.46875 277.273438 55.980469 C 276.785156 55.492188 276.15625 55.089844 275.386719 54.773438 C 274.65625 54.460938 273.765625 54.300781 272.71875 54.300781 C 271.25 54.300781 269.960938 54.722656 268.84375 55.558594 C 267.726562 56.398438 266.9375 57.570312 266.484375 59.070312 Z M 278.898438 59.070312 "/>
<path style=" stroke:none;fill-rule:nonzero;fill:rgb(100%,100%,100%);fill-opacity:1;" d="M 242.65625 49.535156 L 249.097656 49.535156 L 249.097656 53.097656 L 249.519531 53.097656 C 249.832031 52.46875 250.253906 51.894531 250.777344 51.367188 C 251.296875 50.84375 251.875 50.390625 252.503906 50.007812 C 253.167969 49.621094 253.867188 49.324219 254.597656 49.117188 C 255.367188 48.90625 256.117188 48.800781 256.851562 48.800781 C 257.757812 48.800781 258.527344 48.890625 259.15625 49.0625 C 259.820312 49.238281 260.378906 49.464844 260.832031 49.746094 L 259 55.980469 C 258.578125 55.769531 258.105469 55.613281 257.585938 55.507812 C 257.09375 55.367188 256.484375 55.296875 255.753906 55.296875 C 254.808594 55.296875 253.953125 55.492188 253.183594 55.875 C 252.414062 56.222656 251.753906 56.730469 251.195312 57.394531 C 250.671875 58.058594 250.253906 58.84375 249.9375 59.75 C 249.65625 60.625 249.519531 61.585938 249.519531 62.632812 L 249.519531 75.207031 L 242.65625 75.207031 Z M 242.65625 49.535156 "/>
<path style=" stroke:none;fill-rule:nonzero;fill:rgb(100%,100%,100%);fill-opacity:1;" d="M 231.910156 71.851562 L 231.492188 71.851562 C 230.6875 73.144531 229.605469 74.175781 228.242188 74.945312 C 226.878906 75.675781 225.328125 76.042969 223.582031 76.042969 C 220.335938 76.042969 217.90625 75.050781 216.300781 73.058594 C 214.730469 71.066406 213.945312 68.414062 213.945312 65.09375 L 213.945312 49.535156 L 220.804688 49.535156 L 220.804688 64.257812 C 220.804688 66.109375 221.207031 67.488281 222.011719 68.394531 C 222.847656 69.269531 224.054688 69.707031 225.625 69.707031 C 226.566406 69.707031 227.386719 69.511719 228.085938 69.128906 C 228.816406 68.710938 229.429688 68.167969 229.917969 67.503906 C 230.441406 66.804688 230.828125 66.003906 231.070312 65.09375 C 231.351562 64.152344 231.492188 63.15625 231.492188 62.109375 L 231.492188 49.535156 L 238.351562 49.535156 L 238.351562 75.207031 L 231.910156 75.207031 Z M 231.910156 71.851562 "/>
<path style=" stroke:none;fill-rule:nonzero;fill:rgb(100%,100%,100%);fill-opacity:1;" d="M 197.53125 55.402344 L 193.027344 55.402344 L 193.027344 49.535156 L 197.53125 49.535156 L 197.53125 41.675781 L 204.394531 41.675781 L 204.394531 49.535156 L 210.679688 49.535156 L 210.679688 55.402344 L 204.394531 55.402344 L 204.394531 65.355469 C 204.394531 65.949219 204.445312 66.507812 204.550781 67.035156 C 204.691406 67.523438 204.933594 67.941406 205.285156 68.289062 C 205.773438 68.851562 206.472656 69.128906 207.378906 69.128906 C 207.972656 69.128906 208.445312 69.078125 208.792969 68.972656 C 209.140625 68.832031 209.472656 68.65625 209.789062 68.449219 L 211.726562 74.472656 C 210.921875 74.855469 210.050781 75.136719 209.105469 75.3125 C 208.199219 75.519531 207.1875 75.625 206.070312 75.625 C 204.777344 75.625 203.609375 75.433594 202.558594 75.050781 C 201.546875 74.628906 200.691406 74.070312 199.992188 73.371094 C 198.351562 71.800781 197.53125 69.566406 197.53125 66.667969 Z M 197.53125 55.402344 "/>
<path style=" stroke:none;fill-rule:nonzero;fill:rgb(100%,100%,100%);fill-opacity:1;" d="M 183.699219 71.851562 L 183.28125 71.851562 C 182.476562 73.144531 181.394531 74.175781 180.035156 74.945312 C 178.671875 75.675781 177.117188 76.042969 175.371094 76.042969 C 172.125 76.042969 169.699219 75.050781 168.09375 73.058594 C 166.519531 71.066406 165.734375 68.414062 165.734375 65.09375 L 165.734375 49.535156 L 172.597656 49.535156 L 172.597656 64.257812 C 172.597656 66.109375 173 67.488281 173.800781 68.394531 C 174.640625 69.269531 175.84375 69.707031 177.414062 69.707031 C 178.359375 69.707031 179.179688 69.511719 179.875 69.128906 C 180.609375 68.710938 181.222656 68.167969 181.710938 67.503906 C 182.234375 66.804688 182.617188 66.003906 182.863281 65.09375 C 183.140625 64.152344 183.28125 63.15625 183.28125 62.109375 L 183.28125 49.535156 L 190.140625 49.535156 L 190.140625 75.207031 L 183.699219 75.207031 Z M 183.699219 71.851562 "/>
<path style=" stroke:none;fill-rule:nonzero;fill:rgb(100%,100%,100%);fill-opacity:1;" d="M 140.171875 37.695312 L 163.949219 37.695312 L 163.949219 44.402344 L 147.242188 44.402344 L 147.242188 53.515625 L 162.273438 53.515625 L 162.273438 60.222656 L 147.242188 60.222656 L 147.242188 75.207031 L 140.171875 75.207031 Z M 140.171875 37.695312 "/>
<path style=" stroke:none;fill-rule:nonzero;fill:rgb(100%,81.960785%,10.196079%);fill-opacity:1;" d="M 74.488281 112.882812 L 74.488281 94.253906 C 84.792969 94.253906 93.109375 85.933594 93.109375 75.628906 L 111.730469 75.628906 C 111.730469 96.242188 95.035156 112.882812 74.488281 112.882812 Z M 74.488281 112.882812 "/>
<path style=" stroke:none;fill-rule:nonzero;fill:rgb(100%,81.960785%,10.196079%);fill-opacity:1;" d="M 74.488281 112.882812 L 74.488281 94.253906 C 64.183594 94.253906 55.867188 85.933594 55.867188 75.628906 L 37.242188 75.628906 C 37.242188 96.242188 53.941406 112.882812 74.488281 112.882812 Z M 74.488281 112.882812 "/>
<path style=" stroke:none;fill-rule:nonzero;fill:rgb(100%,81.960785%,10.196079%);fill-opacity:1;" d="M 0 75.628906 L 18.621094 75.628906 C 18.621094 85.933594 26.941406 94.253906 37.242188 94.253906 L 37.242188 112.882812 C 16.699219 112.882812 0 96.242188 0 75.628906 Z M 0 75.628906 "/>
<path style=" stroke:none;fill-rule:nonzero;fill:rgb(100%,81.960785%,10.196079%);fill-opacity:1;" d="M 0 75.628906 L 18.621094 75.628906 C 18.621094 65.320312 26.941406 57 37.242188 57 L 37.242188 38.371094 C 16.699219 38.371094 0 55.074219 0 75.628906 Z M 0 75.628906 "/>
<path style=" stroke:none;fill-rule:nonzero;fill:rgb(100%,81.960785%,10.196079%);fill-opacity:1;" d="M 37.242188 1.117188 L 37.242188 19.746094 C 26.941406 19.746094 18.621094 28.066406 18.621094 38.371094 L 0 38.371094 C 0 17.820312 16.699219 1.117188 37.242188 1.117188 Z M 37.242188 1.117188 "/>
<path style=" stroke:none;fill-rule:nonzero;fill:rgb(100%,81.960785%,10.196079%);fill-opacity:1;" d="M 37.242188 1.117188 L 37.242188 19.746094 C 47.546875 19.746094 55.867188 28.066406 55.867188 38.371094 L 74.488281 38.371094 C 74.488281 17.820312 57.789062 1.117188 37.242188 1.117188 Z M 37.242188 1.117188 "/>
<path style=" stroke:none;fill-rule:nonzero;fill:rgb(100%,81.960785%,10.196079%);fill-opacity:1;" d="M 111.730469 38.371094 L 93.109375 38.371094 C 93.109375 28.066406 84.792969 19.746094 74.488281 19.746094 L 74.488281 1.117188 C 95.035156 1.117188 111.730469 17.820312 111.730469 38.371094 Z M 111.730469 38.371094 "/>
<path style=" stroke:none;fill-rule:nonzero;fill:rgb(100%,81.960785%,10.196079%);fill-opacity:1;" d="M 111.730469 38.371094 L 93.109375 38.371094 C 93.109375 48.679688 84.792969 57 74.488281 57 L 74.488281 75.628906 C 95.035156 75.628906 111.730469 58.988281 111.730469 38.371094 Z M 111.730469 38.371094 "/>
</g>
</svg>
