<svg width="144" height="41" viewBox="0 0 144 41" fill="none" xmlns="http://www.w3.org/2000/svg">
<g id="Logo">
<g id="Heading">
<path id="Vector" d="M131.703 13.5909H134.159V17.3596L134.009 19.0284H134.159C134.422 18.5909 134.797 18.2346 135.284 17.9596C135.784 17.6721 136.34 17.5284 136.953 17.5284C138.14 17.5284 139.015 17.8784 139.578 18.5784C140.153 19.2784 140.44 20.2346 140.44 21.4471V27.0159H137.984V21.7471C137.984 21.1096 137.834 20.6284 137.534 20.3034C137.234 19.9659 136.815 19.7971 136.278 19.7971C135.94 19.7971 135.64 19.8721 135.378 20.0221C135.115 20.1596 134.89 20.3534 134.703 20.6034C134.528 20.8534 134.39 21.1471 134.29 21.4846C134.203 21.8096 134.159 22.1596 134.159 22.5346V27.0159H131.703V13.5909Z" fill="white"/>
<path id="Vector_2" d="M130.767 24.6721C130.367 25.4471 129.804 26.0846 129.079 26.5846C128.367 27.0721 127.473 27.3159 126.398 27.3159C125.686 27.3159 125.029 27.1971 124.429 26.9596C123.842 26.7096 123.329 26.3659 122.892 25.9284C122.467 25.4909 122.129 24.9784 121.879 24.3909C121.642 23.7909 121.523 23.1346 121.523 22.4221C121.523 21.7096 121.642 21.0534 121.879 20.4534C122.129 19.8534 122.467 19.3409 122.892 18.9159C123.329 18.4784 123.842 18.1409 124.429 17.9034C125.029 17.6534 125.686 17.5284 126.398 17.5284C127.461 17.5284 128.354 17.7721 129.079 18.2596C129.804 18.7471 130.336 19.3784 130.673 20.1534L128.423 21.0909C128.211 20.6659 127.936 20.3471 127.598 20.1346C127.273 19.9096 126.861 19.7971 126.361 19.7971C126.036 19.7971 125.729 19.8596 125.442 19.9846C125.154 20.1096 124.898 20.2846 124.673 20.5096C124.461 20.7346 124.292 21.0096 124.167 21.3346C124.042 21.6596 123.979 22.0221 123.979 22.4221C123.979 22.8221 124.042 23.1846 124.167 23.5096C124.292 23.8346 124.461 24.1096 124.673 24.3346C124.898 24.5596 125.154 24.7346 125.442 24.8596C125.729 24.9846 126.036 25.0471 126.361 25.0471C126.873 25.0471 127.304 24.9346 127.654 24.7096C128.017 24.4721 128.304 24.1346 128.517 23.6971L130.767 24.6721Z" fill="white"/>
<path id="Vector_3" d="M120.8 24.8034C120.375 25.5534 119.8 26.1596 119.075 26.6221C118.363 27.0846 117.488 27.3159 116.45 27.3159C115.75 27.3159 115.1 27.1971 114.5 26.9596C113.913 26.7096 113.4 26.3659 112.963 25.9284C112.525 25.4909 112.182 24.9784 111.932 24.3909C111.694 23.7909 111.575 23.1346 111.575 22.4221C111.575 21.7596 111.694 21.1346 111.932 20.5471C112.169 19.9471 112.5 19.4284 112.925 18.9909C113.35 18.5409 113.85 18.1846 114.425 17.9221C115.013 17.6596 115.657 17.5284 116.357 17.5284C117.094 17.5284 117.75 17.6534 118.325 17.9034C118.9 18.1409 119.382 18.4784 119.769 18.9159C120.157 19.3409 120.45 19.8471 120.65 20.4346C120.85 21.0221 120.95 21.6596 120.95 22.3471C120.95 22.4346 120.95 22.5096 120.95 22.5721C120.938 22.6471 120.932 22.7159 120.932 22.7784C120.919 22.8409 120.913 22.9096 120.913 22.9846H113.994C114.044 23.3596 114.144 23.6846 114.294 23.9596C114.457 24.2221 114.65 24.4471 114.875 24.6346C115.113 24.8096 115.369 24.9409 115.644 25.0284C115.919 25.1034 116.2 25.1409 116.488 25.1409C117.05 25.1409 117.513 25.0159 117.875 24.7659C118.25 24.5034 118.544 24.1784 118.757 23.7909L120.8 24.8034ZM118.569 21.2409C118.557 21.0784 118.5 20.8971 118.4 20.6971C118.313 20.4971 118.175 20.3096 117.988 20.1346C117.813 19.9596 117.588 19.8159 117.313 19.7034C117.05 19.5909 116.732 19.5346 116.357 19.5346C115.832 19.5346 115.369 19.6846 114.969 19.9846C114.569 20.2846 114.288 20.7034 114.125 21.2409H118.569Z" fill="white"/>
<path id="Vector_4" d="M106.383 27.0159V15.9909H102.633V13.5909H112.664V15.9909H108.914V27.0159H106.383Z" fill="white"/>
<path id="Vector_5" d="M102.077 24.8034C101.652 25.5534 101.077 26.1596 100.352 26.6221C99.6393 27.0846 98.7643 27.3159 97.7268 27.3159C97.0268 27.3159 96.3768 27.1971 95.7768 26.9596C95.1893 26.7096 94.6768 26.3659 94.2393 25.9284C93.8018 25.4909 93.4581 24.9784 93.2081 24.3909C92.9706 23.7909 92.8518 23.1346 92.8518 22.4221C92.8518 21.7596 92.9706 21.1346 93.2081 20.5471C93.4456 19.9471 93.7768 19.4284 94.2018 18.9909C94.6268 18.5409 95.1268 18.1846 95.7018 17.9221C96.2893 17.6596 96.9331 17.5284 97.6331 17.5284C98.3706 17.5284 99.0268 17.6534 99.6018 17.9034C100.177 18.1409 100.658 18.4784 101.046 18.9159C101.433 19.3409 101.727 19.8471 101.927 20.4346C102.127 21.0221 102.227 21.6596 102.227 22.3471C102.227 22.4346 102.227 22.5096 102.227 22.5721C102.214 22.6471 102.208 22.7159 102.208 22.7784C102.196 22.8409 102.189 22.9096 102.189 22.9846H95.2706C95.3206 23.3596 95.4206 23.6846 95.5706 23.9596C95.7331 24.2221 95.9268 24.4471 96.1518 24.6346C96.3893 24.8096 96.6456 24.9409 96.9206 25.0284C97.1956 25.1034 97.4768 25.1409 97.7643 25.1409C98.3268 25.1409 98.7893 25.0159 99.1518 24.7659C99.5268 24.5034 99.8206 24.1784 100.033 23.7909L102.077 24.8034ZM99.8456 21.2409C99.8331 21.0784 99.7768 20.8971 99.6768 20.6971C99.5893 20.4971 99.4518 20.3096 99.2643 20.1346C99.0893 19.9596 98.8643 19.8159 98.5893 19.7034C98.3268 19.5909 98.0081 19.5346 97.6331 19.5346C97.1081 19.5346 96.6456 19.6846 96.2456 19.9846C95.8456 20.2846 95.5643 20.7034 95.4018 21.2409H99.8456Z" fill="white"/>
<path id="Vector_6" d="M86.8713 17.8284H89.1776V19.1034H89.3276C89.4401 18.8784 89.5901 18.6721 89.7776 18.4846C89.9651 18.2971 90.1713 18.1346 90.3963 17.9971C90.6338 17.8596 90.8838 17.7534 91.1463 17.6784C91.4213 17.6034 91.6901 17.5659 91.9526 17.5659C92.2776 17.5659 92.5526 17.5971 92.7776 17.6596C93.0151 17.7221 93.2151 17.8034 93.3776 17.9034L92.7213 20.1346C92.5713 20.0596 92.4026 20.0034 92.2151 19.9659C92.0401 19.9159 91.8213 19.8909 91.5588 19.8909C91.2213 19.8909 90.9151 19.9596 90.6401 20.0971C90.3651 20.2221 90.1276 20.4034 89.9276 20.6409C89.7401 20.8784 89.5901 21.1596 89.4776 21.4846C89.3776 21.7971 89.3276 22.1409 89.3276 22.5159V27.0159H86.8713V17.8284Z" fill="white"/>
<path id="Vector_7" d="M83.0235 25.8159H82.8735C82.586 26.2784 82.1985 26.6471 81.711 26.9221C81.2235 27.1846 80.6673 27.3159 80.0423 27.3159C78.8798 27.3159 78.011 26.9596 77.436 26.2471C76.8735 25.5346 76.5923 24.5846 76.5923 23.3971V17.8284H79.0485V23.0971C79.0485 23.7596 79.1923 24.2534 79.4798 24.5784C79.7798 24.8909 80.211 25.0471 80.7735 25.0471C81.111 25.0471 81.4048 24.9784 81.6548 24.8409C81.9173 24.6909 82.136 24.4971 82.311 24.2596C82.4985 24.0096 82.636 23.7221 82.7235 23.3971C82.8235 23.0596 82.8735 22.7034 82.8735 22.3284V17.8284H85.3298V27.0159H83.0235V25.8159Z" fill="white"/>
<path id="Vector_8" d="M70.7167 19.9284H69.1042V17.8284H70.7167V15.0159H73.173V17.8284H75.423V19.9284H73.173V23.4909C73.173 23.7034 73.1917 23.9034 73.2292 24.0909C73.2792 24.2659 73.3667 24.4159 73.4917 24.5409C73.6667 24.7409 73.9167 24.8409 74.2417 24.8409C74.4542 24.8409 74.623 24.8221 74.748 24.7846C74.873 24.7346 74.9917 24.6721 75.1042 24.5971L75.798 26.7534C75.5105 26.8909 75.198 26.9909 74.8605 27.0534C74.5355 27.1284 74.173 27.1659 73.773 27.1659C73.3105 27.1659 72.8917 27.0971 72.5167 26.9596C72.1542 26.8096 71.848 26.6096 71.598 26.3596C71.0105 25.7971 70.7167 24.9971 70.7167 23.9596V19.9284Z" fill="white"/>
<path id="Vector_9" d="M65.7647 25.8159H65.6147C65.3272 26.2784 64.9397 26.6471 64.4522 26.9221C63.9647 27.1846 63.4085 27.3159 62.7835 27.3159C61.621 27.3159 60.7522 26.9596 60.1772 26.2471C59.6147 25.5346 59.3335 24.5846 59.3335 23.3971V17.8284H61.7897V23.0971C61.7897 23.7596 61.9335 24.2534 62.221 24.5784C62.521 24.8909 62.9522 25.0471 63.5147 25.0471C63.8522 25.0471 64.146 24.9784 64.396 24.8409C64.6585 24.6909 64.8772 24.4971 65.0522 24.2596C65.2397 24.0096 65.3772 23.7221 65.4647 23.3971C65.5647 23.0596 65.6147 22.7034 65.6147 22.3284V17.8284H68.071V27.0159H65.7647V25.8159Z" fill="white"/>
<path id="Vector_10" d="M50.1819 13.5909H58.6944V15.9909H52.7131V19.2534H58.0944V21.6534H52.7131V27.0159H50.1819V13.5909Z" fill="white"/>
</g>
<g id="Group">
<g id="Group_2">
<g id="Group_3">
<path id="Vector_11" d="M26.6665 40.5V33.8334C30.3554 33.8334 33.3332 30.8556 33.3332 27.1667H39.9998C39.9998 34.5445 34.0221 40.5 26.6665 40.5Z" fill="#FFD11A"/>
</g>
<g id="Group_4">
<path id="Vector_12" d="M26.6666 40.5V33.8334C22.9777 33.8334 19.9999 30.8556 19.9999 27.1667H13.3333C13.3333 34.5445 19.311 40.5 26.6666 40.5Z" fill="#FFD11A"/>
</g>
</g>
<g id="Group_5">
<g id="Group_6">
<path id="Vector_13" d="M0 27.1666H6.66667C6.66667 30.8555 9.64444 33.8333 13.3333 33.8333V40.5C5.97778 40.5 0 34.5444 0 27.1666Z" fill="#FFD11A"/>
</g>
<g id="Group_7">
<path id="Vector_14" d="M0 27.1666H6.66667C6.66667 23.4778 9.64444 20.5 13.3333 20.5V13.8333C5.97778 13.8333 0 19.8111 0 27.1666Z" fill="#FFD11A"/>
</g>
</g>
<g id="Group_8">
<g id="Group_9">
<path id="Vector_15" d="M13.3333 0.5V7.16667C9.64444 7.16667 6.66667 10.1444 6.66667 13.8333H0C0 6.47778 5.97778 0.5 13.3333 0.5Z" fill="#FFD11A"/>
</g>
<g id="Group_10">
<path id="Vector_16" d="M13.3333 0.5V7.16667C17.0221 7.16667 19.9999 10.1444 19.9999 13.8333H26.6666C26.6666 6.47778 20.6888 0.5 13.3333 0.5Z" fill="#FFD11A"/>
</g>
</g>
<g id="Group_11">
<g id="Group_12">
<path id="Vector_17" d="M40.0001 13.8333H33.3334C33.3334 10.1444 30.3556 7.16667 26.6667 7.16667V0.5C34.0223 0.5 40.0001 6.47778 40.0001 13.8333Z" fill="#FFD11A"/>
</g>
<g id="Group_13">
<path id="Vector_18" d="M40.0001 13.8333H33.3334C33.3334 17.5222 30.3556 20.5 26.6667 20.5V27.1666C34.0223 27.1666 40.0001 21.2111 40.0001 13.8333Z" fill="#FFD11A"/>
</g>
</g>
</g>
</g>
</svg>
