<svg width="126" height="35" viewBox="0 0 126 35" fill="none" xmlns="http://www.w3.org/2000/svg">
<g id="Logo">
<g id="Heading">
<path id="Vector" d="M115.24 11.4545H117.389V14.7522L117.258 16.2123H117.389C117.619 15.8295 117.947 15.5178 118.374 15.2772C118.811 15.0256 119.298 14.8998 119.834 14.8998C120.873 14.8998 121.639 15.2061 122.131 15.8186C122.634 16.4311 122.886 17.2678 122.886 18.3287V23.2014H120.736V18.5912C120.736 18.0334 120.605 17.6123 120.343 17.328C120.08 17.0327 119.714 16.885 119.243 16.885C118.948 16.885 118.686 16.9506 118.456 17.0819C118.226 17.2022 118.029 17.3717 117.865 17.5905C117.712 17.8092 117.592 18.0662 117.504 18.3616C117.428 18.6459 117.389 18.9522 117.389 19.2803V23.2014H115.24V11.4545Z" fill="white"/>
<path id="Vector_2" d="M114.421 21.1506C114.071 21.8287 113.579 22.3866 112.945 22.8241C112.321 23.2506 111.539 23.4639 110.599 23.4639C109.975 23.4639 109.401 23.36 108.876 23.1522C108.362 22.9334 107.913 22.6327 107.531 22.2498C107.159 21.867 106.863 21.4186 106.645 20.9045C106.437 20.3795 106.333 19.8053 106.333 19.1819C106.333 18.5584 106.437 17.9842 106.645 17.4592C106.863 16.9342 107.159 16.4858 107.531 16.1139C107.913 15.7311 108.362 15.4358 108.876 15.228C109.401 15.0092 109.975 14.8998 110.599 14.8998C111.528 14.8998 112.31 15.1131 112.945 15.5397C113.579 15.9662 114.044 16.5186 114.339 17.1967L112.371 18.017C112.185 17.6452 111.944 17.3662 111.649 17.1803C111.364 16.9834 111.003 16.885 110.566 16.885C110.281 16.885 110.013 16.9397 109.762 17.0491C109.51 17.1584 109.286 17.3116 109.089 17.5084C108.903 17.7053 108.756 17.9459 108.646 18.2303C108.537 18.5147 108.482 18.8319 108.482 19.1819C108.482 19.5319 108.537 19.8491 108.646 20.1334C108.756 20.4178 108.903 20.6584 109.089 20.8553C109.286 21.0522 109.51 21.2053 109.762 21.3147C110.013 21.4241 110.281 21.4787 110.566 21.4787C111.014 21.4787 111.392 21.3803 111.698 21.1834C112.015 20.9756 112.267 20.6803 112.453 20.2975L114.421 21.1506Z" fill="white"/>
<path id="Vector_3" d="M105.7 21.2655C105.328 21.9217 104.825 22.4522 104.191 22.8569C103.567 23.2616 102.802 23.4639 101.894 23.4639C101.282 23.4639 100.713 23.36 100.188 23.1522C99.6737 22.9334 99.2253 22.6327 98.8425 22.2498C98.4597 21.867 98.1589 21.4186 97.9401 20.9045C97.7323 20.3795 97.6284 19.8053 97.6284 19.1819C97.6284 18.6022 97.7323 18.0553 97.9401 17.5412C98.148 17.0162 98.4378 16.5623 98.8097 16.1795C99.1815 15.7858 99.619 15.4741 100.122 15.2444C100.636 15.0147 101.2 14.8998 101.812 14.8998C102.457 14.8998 103.032 15.0092 103.535 15.228C104.038 15.4358 104.459 15.7311 104.798 16.1139C105.137 16.4858 105.394 16.9287 105.569 17.4428C105.744 17.9569 105.832 18.5147 105.832 19.1162C105.832 19.1928 105.832 19.2584 105.832 19.3131C105.821 19.3787 105.815 19.4389 105.815 19.4936C105.804 19.5483 105.799 19.6084 105.799 19.6741H99.7448C99.7886 20.0022 99.8761 20.2866 100.007 20.5272C100.15 20.7569 100.319 20.9537 100.516 21.1178C100.724 21.2709 100.948 21.3858 101.189 21.4623C101.429 21.528 101.675 21.5608 101.927 21.5608C102.419 21.5608 102.824 21.4514 103.141 21.2327C103.469 21.003 103.726 20.7186 103.912 20.3795L105.7 21.2655ZM103.748 18.1483C103.737 18.0061 103.688 17.8475 103.6 17.6725C103.524 17.4975 103.403 17.3334 103.239 17.1803C103.086 17.0272 102.889 16.9014 102.649 16.803C102.419 16.7045 102.14 16.6553 101.812 16.6553C101.353 16.6553 100.948 16.7866 100.598 17.0491C100.248 17.3116 100.002 17.678 99.8597 18.1483H103.748Z" fill="white"/>
<path id="Vector_4" d="M93.085 23.2014V13.5545H89.8037V11.4545H98.5811V13.5545H95.2998V23.2014H93.085Z" fill="white"/>
<path id="Vector_5" d="M89.317 21.2655C88.9451 21.9217 88.442 22.4522 87.8076 22.8569C87.1842 23.2616 86.4186 23.4639 85.5107 23.4639C84.8982 23.4639 84.3295 23.36 83.8045 23.1522C83.2904 22.9334 82.842 22.6327 82.4592 22.2498C82.0764 21.867 81.7756 21.4186 81.5568 20.9045C81.349 20.3795 81.2451 19.8053 81.2451 19.1819C81.2451 18.6022 81.349 18.0553 81.5568 17.5412C81.7647 17.0162 82.0545 16.5623 82.4264 16.1795C82.7982 15.7858 83.2357 15.4741 83.7389 15.2444C84.2529 15.0147 84.8162 14.8998 85.4287 14.8998C86.074 14.8998 86.6482 15.0092 87.1514 15.228C87.6545 15.4358 88.0756 15.7311 88.4147 16.1139C88.7537 16.4858 89.0107 16.9287 89.1857 17.4428C89.3607 17.9569 89.4482 18.5147 89.4482 19.1162C89.4482 19.1928 89.4482 19.2584 89.4482 19.3131C89.4373 19.3787 89.4318 19.4389 89.4318 19.4936C89.4209 19.5483 89.4154 19.6084 89.4154 19.6741H83.3615C83.4053 20.0022 83.4928 20.2866 83.624 20.5272C83.7662 20.7569 83.9357 20.9537 84.1326 21.1178C84.3404 21.2709 84.5646 21.3858 84.8053 21.4623C85.0459 21.528 85.292 21.5608 85.5436 21.5608C86.0357 21.5608 86.4404 21.4514 86.7576 21.2327C87.0857 21.003 87.3428 20.7186 87.5287 20.3795L89.317 21.2655ZM87.3646 18.1483C87.3537 18.0061 87.3045 17.8475 87.217 17.6725C87.1404 17.4975 87.0201 17.3334 86.8561 17.1803C86.7029 17.0272 86.5061 16.9014 86.2654 16.803C86.0357 16.7045 85.7568 16.6553 85.4287 16.6553C84.9693 16.6553 84.5646 16.7866 84.2146 17.0491C83.8646 17.3116 83.6186 17.678 83.4764 18.1483H87.3646Z" fill="white"/>
<path id="Vector_6" d="M76.0127 15.1624H78.0307V16.278H78.1619C78.2604 16.0811 78.3916 15.9006 78.5557 15.7366C78.7197 15.5725 78.9002 15.4303 79.0971 15.31C79.3049 15.1897 79.5236 15.0967 79.7533 15.0311C79.9939 14.9655 80.2291 14.9327 80.4588 14.9327C80.7432 14.9327 80.9838 14.96 81.1807 15.0147C81.3885 15.0694 81.5635 15.1405 81.7057 15.228L81.1314 17.1803C81.0002 17.1147 80.8525 17.0655 80.6885 17.0327C80.5354 16.9889 80.3439 16.9671 80.1143 16.9671C79.8189 16.9671 79.551 17.0272 79.3104 17.1475C79.0697 17.2569 78.8619 17.4155 78.6869 17.6233C78.5229 17.8311 78.3916 18.0772 78.2932 18.3616C78.2057 18.635 78.1619 18.9358 78.1619 19.2639V23.2014H76.0127V15.1624Z" fill="white"/>
<path id="Vector_7" d="M72.6454 22.1514H72.5142C72.2626 22.5561 71.9235 22.8788 71.497 23.1194C71.0704 23.3491 70.5837 23.4639 70.0368 23.4639C69.0196 23.4639 68.2595 23.1522 67.7563 22.5288C67.2642 21.9053 67.0181 21.0741 67.0181 20.035V15.1624H69.1673V19.7725C69.1673 20.3522 69.2931 20.7842 69.5446 21.0686C69.8071 21.342 70.1845 21.4788 70.6767 21.4788C70.972 21.4788 71.229 21.4186 71.4478 21.2983C71.6774 21.167 71.8688 20.9975 72.022 20.7897C72.186 20.5709 72.3063 20.3194 72.3829 20.035C72.4704 19.7397 72.5142 19.428 72.5142 19.0999V15.1624H74.6634V23.2014H72.6454V22.1514Z" fill="white"/>
<path id="Vector_8" d="M61.8772 16.9999H60.4663V15.1624H61.8772V12.7014H64.0265V15.1624H65.9952V16.9999H64.0265V20.117C64.0265 20.303 64.0429 20.478 64.0757 20.642C64.1194 20.7952 64.196 20.9264 64.3054 21.0358C64.4585 21.2108 64.6772 21.2983 64.9616 21.2983C65.1476 21.2983 65.2952 21.2819 65.4046 21.2491C65.514 21.2053 65.6179 21.1506 65.7163 21.085L66.3233 22.9717C66.0718 23.092 65.7983 23.1795 65.503 23.2342C65.2187 23.2999 64.9015 23.3327 64.5515 23.3327C64.1468 23.3327 63.7804 23.2725 63.4522 23.1522C63.1351 23.0209 62.8671 22.8459 62.6483 22.6272C62.1343 22.135 61.8772 21.435 61.8772 20.5272V16.9999Z" fill="white"/>
<path id="Vector_9" d="M57.5443 22.1514H57.4131C57.1615 22.5561 56.8225 22.8788 56.3959 23.1194C55.9693 23.3491 55.4826 23.4639 54.9357 23.4639C53.9186 23.4639 53.1584 23.1522 52.6553 22.5288C52.1631 21.9053 51.917 21.0741 51.917 20.035V15.1624H54.0662V19.7725C54.0662 20.3522 54.192 20.7842 54.4436 21.0686C54.7061 21.342 55.0834 21.4788 55.5756 21.4788C55.8709 21.4788 56.1279 21.4186 56.3467 21.2983C56.5764 21.167 56.7678 20.9975 56.9209 20.7897C57.085 20.5709 57.2053 20.3194 57.2818 20.035C57.3693 19.7397 57.4131 19.428 57.4131 19.0999V15.1624H59.5623V23.2014H57.5443V22.1514Z" fill="white"/>
<path id="Vector_10" d="M43.9092 11.4545H51.3576V13.5545H46.124V16.4092H50.8326V18.5092H46.124V23.2014H43.9092V11.4545Z" fill="white"/>
</g>
<g id="Group">
<g id="Group_2">
<g id="Group_3">
<path id="Vector_11" d="M23.333 35V29.1666C26.5608 29.1666 29.1663 26.5611 29.1663 23.3333H34.9997C34.9997 29.7889 29.7691 35 23.333 35Z" fill="#FFD11A"/>
</g>
<g id="Group_4">
<path id="Vector_12" d="M23.3332 35V29.1666C20.1054 29.1666 17.4998 26.5611 17.4998 23.3333H11.6665C11.6665 29.7889 16.8971 35 23.3332 35Z" fill="#FFD11A"/>
</g>
</g>
<g id="Group_5">
<g id="Group_6">
<path id="Vector_13" d="M0 23.3334H5.83333C5.83333 26.5612 8.43889 29.1667 11.6667 29.1667V35C5.23056 35 0 29.7889 0 23.3334Z" fill="#FFD11A"/>
</g>
<g id="Group_7">
<path id="Vector_14" d="M0 23.3334H5.83333C5.83333 20.1056 8.43889 17.5 11.6667 17.5V11.6667C5.23056 11.6667 0 16.8972 0 23.3334Z" fill="#FFD11A"/>
</g>
</g>
<g id="Group_8">
<g id="Group_9">
<path id="Vector_15" d="M11.6667 0V5.83333C8.43889 5.83333 5.83333 8.43889 5.83333 11.6667H0C0 5.23056 5.23056 0 11.6667 0Z" fill="#FFD11A"/>
</g>
<g id="Group_10">
<path id="Vector_16" d="M11.6665 0V5.83333C14.8943 5.83333 17.4998 8.43889 17.4998 11.6667H23.3332C23.3332 5.23056 18.1026 0 11.6665 0Z" fill="#FFD11A"/>
</g>
</g>
<g id="Group_11">
<g id="Group_12">
<path id="Vector_17" d="M35.0002 11.6667H29.1668C29.1668 8.43889 26.5613 5.83333 23.3335 5.83333V0C29.7696 0 35.0002 5.23056 35.0002 11.6667Z" fill="#FFD11A"/>
</g>
<g id="Group_13">
<path id="Vector_18" d="M35.0002 11.6667H29.1668C29.1668 14.8945 26.5613 17.5 23.3335 17.5V23.3334C29.7696 23.3334 35.0002 18.1222 35.0002 11.6667Z" fill="#FFD11A"/>
</g>
</g>
</g>
</g>
</svg>
