<svg width="60" height="60" viewBox="0 0 60 60" fill="none" xmlns="http://www.w3.org/2000/svg">
<g id="Logo">
<g id="Group">
<g id="Group_2">
<path id="Vector" d="M40 59.9999V50C45.5333 50 50 45.5333 50 40H59.9999C59.9999 51.0666 51.0333 59.9999 40 59.9999Z" fill="#FFD11A"/>
</g>
<g id="Group_3">
<path id="Vector_2" d="M40.0004 59.9999V50C34.4671 50 30.0004 45.5333 30.0004 40H20.0005C20.0005 51.0666 28.9671 59.9999 40.0004 59.9999Z" fill="#FFD11A"/>
</g>
</g>
<g id="Group_4">
<g id="Group_5">
<path id="Vector_3" d="M0 39.9985H9.99995C9.99995 45.5318 14.4666 49.9985 19.9999 49.9985V59.9984C8.96663 59.9984 0 51.0652 0 39.9985Z" fill="#FFD11A"/>
</g>
<g id="Group_6">
<path id="Vector_4" d="M0 39.9989H9.99995C9.99995 34.4656 14.4666 29.999 19.9999 29.999V19.999C8.96663 19.999 0 28.9656 0 39.9989Z" fill="#FFD11A"/>
</g>
</g>
<g id="Group_7">
<g id="Group_8">
<path id="Vector_5" d="M19.9999 0V9.99995C14.4666 9.99995 9.99995 14.4666 9.99995 19.9999H0C0 8.96663 8.96663 0 19.9999 0Z" fill="#FFD11A"/>
</g>
<g id="Group_9">
<path id="Vector_6" d="M20.0005 0V9.99995C25.5338 9.99995 30.0004 14.4666 30.0004 19.9999H40.0004C40.0004 8.96663 31.0338 0 20.0005 0Z" fill="#FFD11A"/>
</g>
</g>
<g id="Group_10">
<g id="Group_11">
<path id="Vector_7" d="M59.9994 19.9999H49.9995C49.9995 14.4666 45.5328 9.99995 39.9995 9.99995V0C51.0328 0 59.9994 8.96663 59.9994 19.9999Z" fill="#FFD11A"/>
</g>
<g id="Group_12">
<path id="Vector_8" d="M59.9994 19.999H49.9995C49.9995 25.5323 45.5328 29.999 39.9995 29.999V39.9989C51.0328 39.9989 59.9994 31.0656 59.9994 19.999Z" fill="#FFD11A"/>
</g>
</g>
</g>
</svg>
