<svg width="53" height="52" viewBox="0 0 53 52" fill="none" xmlns="http://www.w3.org/2000/svg">
<rect x="0.332031" width="52" height="52" rx="26" fill="#FFD11A"/>
<path fill-rule="evenodd" clip-rule="evenodd" d="M22.582 17.75L33.832 17.75C34.0309 17.75 34.2217 17.829 34.3624 17.9697C34.503 18.1103 34.582 18.3011 34.582 18.5V29.75C34.582 30.1642 34.2462 30.5 33.832 30.5C33.4178 30.5 33.082 30.1642 33.082 29.75V20.3107L19.3624 34.0303C19.0695 34.3232 18.5946 34.3232 18.3017 34.0303C18.0088 33.7374 18.0088 33.2626 18.3017 32.9697L32.0214 19.25L22.582 19.25C22.1678 19.25 21.832 18.9142 21.832 18.5C21.832 18.0858 22.1678 17.75 22.582 17.75Z" fill="#141414"/>
</svg>
